# xmcd CD database file
#
# Track frame offsets:
#	150
#	17125
#	31015
#	45491
#	62120
#	77817
#	94759
#	104573
#	122646
#	139899
#	154007
#	167803
#	186405
#	202849
#	229105
#
# Disc length: 4440 seconds
#
# Revision: 2
# Processed by: cddbd v1.5.2PL0 Copyright (c) Steve Scherf et al.
# Submitted via: CDex 1.50
#
DISCID=c311560f
DTITLE=Desmod - Derylov svet
DYEAR=2003
DGENRE=Rock
TTITLE0=01.Homo Sapiens
TTITLE1=02.To nie je mozne
TTITLE2=03.Volnym padom
TTITLE3=04.Hemeroidy
TTITLE4=05.Dobry napad
TTITLE5=06.Chces sa hadat?
TTITLE6=07.Nenavidim
TTITLE7=08.Mam asi pravdu
TTITLE8=09.9 mm
TTITLE9=10.Po kvapkach
TTITLE10=11.Diagnoza
TTITLE11=12.Dokonaly svet
TTITLE12=13.Posledna
TTITLE13=14.Kto mi poradi
TTITLE14=data
EXTD=YEAR: 2003
EXTT0=
EXTT1=
EXTT2=
EXTT3=
EXTT4=
EXTT5=
EXTT6=
EXTT7=
EXTT8=
EXTT9=
EXTT10=
EXTT11=
EXTT12=
EXTT13=
EXTT14=
PLAYORDER=
